<svg xmlns="http://www.w3.org/2000/svg" viewBox="0 0 512 512"><g data-name="Layer 2"><g data-name="Layer 1"><rect width="512" height="512" fill="#4a6fa5" data-original="#4a6fa5" rx="150"/><path fill="#fff" d="M288.12 392.73H236.2V148.26a61.63 61.63 0 0 0-26.69 23.62q-9.37 15.33-9.37 37a86 86 0 0 0 1.62 18.38 64 64 0 0 0 3.61 11.72 32.4 32.4 0 0 0 4.14 7.22 28.5 28.5 0 0 1 3.25 4.86q-21.64 0-34.26-9.91t-12.62-33.72a63.23 63.23 0 0 1 9-32.63 96.2 96.2 0 0 1 24-27 120.7 120.7 0 0 1 34.26-18.57A118.1 118.1 0 0 1 273 122.3c2.65 0 5.23.06 7.76.18s5 .3 7.39.54z" data-name="I" data-original="#ffffff"/></g></g></svg>